<?xml version="1.0" encoding="UTF-8" standalone="no"?>
<!-- Created with Inkscape (http://www.inkscape.org/) -->

<svg
   version="1.1"
   id="svg2"
   xml:space="preserve"
   width="1333.3333"
   height="1000"
   viewBox="0 0 1333.3333 1000"
   sodipodi:docname="Curculos con la proporción aurea.ai.svg"
   inkscape:version="1.1.1 (3bf5ae0d25, 2021-09-20)"
   xmlns:inkscape="http://www.inkscape.org/namespaces/inkscape"
   xmlns:sodipodi="http://sodipodi.sourceforge.net/DTD/sodipodi-0.dtd"
   xmlns="http://www.w3.org/2000/svg"
   xmlns:svg="http://www.w3.org/2000/svg"><defs
     id="defs6"><clipPath
       clipPathUnits="userSpaceOnUse"
       id="clipPath16"><path
         d="M 0,750 H 1000 V 0 H 0 Z"
         id="path14" /></clipPath><clipPath
       clipPathUnits="userSpaceOnUse"
       id="clipPath146"><path
         d="m 751.315,101.276 c 1.113,-0.321 4.196,-1.258 8.182,-2.863 v 0 c 6.125,-2.148 11.047,-4.877 14.821,-7.455 v 0 c -0.764,4.937 -3.95,7.569 -3.984,7.597 v 0 c -4.617,2.999 -10.796,5.88 -19.019,8.086 v 0 z"
         id="path144" /></clipPath><linearGradient
       x1="0"
       y1="0"
       x2="1"
       y2="0"
       gradientUnits="userSpaceOnUse"
       gradientTransform="matrix(23.479334,0,0,-23.479334,750.83868,98.799477)"
       spreadMethod="pad"
       id="linearGradient160"><stop
         style="stop-opacity:1;stop-color:#e05325"
         offset="0"
         id="stop152" /><stop
         style="stop-opacity:1;stop-color:#e05325"
         offset="0.102151"
         id="stop154" /><stop
         style="stop-opacity:1;stop-color:#e05325"
         offset="0.42180199"
         id="stop156" /><stop
         style="stop-opacity:1;stop-color:#f29a24"
         offset="1"
         id="stop158" /></linearGradient><clipPath
       clipPathUnits="userSpaceOnUse"
       id="clipPath170"><path
         d="m 746.074,88.56 c 1.124,0.157 13.694,1.649 26.329,-8.082 v 0 c -0.034,0.033 -0.059,0.058 -0.066,0.063 v 0 c 0.997,1.997 1.586,3.835 1.888,5.517 v 0 c -6.44,4.698 -14.466,7.219 -21.771,8.545 v 0 c -2.009,0.235 -4.142,0.351 -6.38,0.352 v 0 z"
         id="path168" /></clipPath><linearGradient
       x1="0"
       y1="0"
       x2="1"
       y2="0"
       gradientUnits="userSpaceOnUse"
       gradientTransform="matrix(28.65823,0,0,-28.65823,745.5672,87.716682)"
       spreadMethod="pad"
       id="linearGradient182"><stop
         style="stop-opacity:1;stop-color:#fdcd10"
         offset="0"
         id="stop176" /><stop
         style="stop-opacity:1;stop-color:#fdcd10"
         offset="0.2810669"
         id="stop178" /><stop
         style="stop-opacity:1;stop-color:#f29a24"
         offset="1"
         id="stop180" /></linearGradient><clipPath
       clipPathUnits="userSpaceOnUse"
       id="clipPath192"><path
         d="M 0,750 H 1000 V 0 H 0 Z"
         id="path190" /></clipPath></defs><sodipodi:namedview
     id="namedview4"
     pagecolor="#ffffff"
     bordercolor="#666666"
     borderopacity="1.0"
     inkscape:pageshadow="2"
     inkscape:pageopacity="0.0"
     inkscape:pagecheckerboard="0"
     showgrid="false"
     inkscape:zoom="0.87395882"
     inkscape:cx="713.99245"
     inkscape:cy="645.33933"
     inkscape:window-width="1360"
     inkscape:window-height="716"
     inkscape:window-x="0"
     inkscape:window-y="0"
     inkscape:window-maximized="1"
     inkscape:current-layer="g8" /><g
     id="g8"
     inkscape:groupmode="layer"
     inkscape:label="f42029952"
     transform="matrix(1.3333333,0,0,-1.3333333,0,1000)"><g
       id="g10"><g
         id="g12"
         clip-path="url(#clipPath16)"><g
           id="g18"
           transform="translate(879.9679,375)"><path
             d="m 0,0 c 0,-56.391 -45.714,-102.105 -102.105,-102.105 -56.39,0 -102.104,45.714 -102.104,102.105 0,56.391 45.714,102.105 102.104,102.105 C -45.714,102.105 0,56.391 0,0 Z"
             style="fill:none;stroke:#231f20;stroke-width:1;stroke-linecap:butt;stroke-linejoin:miter;stroke-miterlimit:10;stroke-dasharray:none;stroke-opacity:1"
             id="path20" /></g><g
           id="g22"
           transform="translate(840.9639,375)"><path
             d="m 0,0 c 0,-34.85 -28.251,-63.101 -63.101,-63.101 -34.849,0 -63.1,28.251 -63.1,63.101 0,34.85 28.251,63.101 63.1,63.101 C -28.251,63.101 0,34.85 0,0 Z"
             style="fill:none;stroke:#231f20;stroke-width:1;stroke-linecap:butt;stroke-linejoin:miter;stroke-miterlimit:10;stroke-dasharray:none;stroke-opacity:1"
             id="path24" /></g><g
           id="g26"
           transform="translate(816.8672,375)"><path
             d="m 0,0 c 0,-21.541 -17.463,-39.004 -39.004,-39.004 -21.541,0 -39.004,17.463 -39.004,39.004 0,21.541 17.463,39.004 39.004,39.004 C -17.463,39.004 0,21.541 0,0 Z"
             style="fill:none;stroke:#231f20;stroke-width:1;stroke-linecap:butt;stroke-linejoin:miter;stroke-miterlimit:10;stroke-dasharray:none;stroke-opacity:1"
             id="path28" /></g><g
           id="g30"
           transform="translate(801.96,375)"><path
             d="m 0,0 c 0,-13.308 -10.788,-24.097 -24.097,-24.097 -13.308,0 -24.096,10.789 -24.096,24.097 0,13.308 10.788,24.097 24.096,24.097 C -10.788,24.097 0,13.308 0,0 Z"
             style="fill:none;stroke:#231f20;stroke-width:1;stroke-linecap:butt;stroke-linejoin:miter;stroke-miterlimit:10;stroke-dasharray:none;stroke-opacity:1"
             id="path32" /></g><g
           id="g34"
           transform="translate(792.7705,375)"><path
             d="m 0,0 c 0,-8.233 -6.674,-14.907 -14.907,-14.907 -8.233,0 -14.908,6.674 -14.908,14.907 0,8.233 6.675,14.907 14.908,14.907 C -6.674,14.907 0,8.233 0,0 Z"
             style="fill:none;stroke:#231f20;stroke-width:1;stroke-linecap:butt;stroke-linejoin:miter;stroke-miterlimit:10;stroke-dasharray:none;stroke-opacity:1"
             id="path36" /></g><g
           id="g38"
           transform="translate(787.0527,375)"><path
             d="m 0,0 c 0,-5.075 -4.114,-9.189 -9.189,-9.189 -5.076,0 -9.19,4.114 -9.19,9.189 0,5.075 4.114,9.189 9.19,9.189 C -4.114,9.189 0,5.075 0,0 Z"
             style="fill:none;stroke:#231f20;stroke-width:1;stroke-linecap:butt;stroke-linejoin:miter;stroke-miterlimit:10;stroke-dasharray:none;stroke-opacity:1"
             id="path40" /></g><g
           id="g42"
           transform="translate(247.5972,321.0887)"><path
             d="M 0,0 H 48.193"
             style="fill:none;stroke:#231f20;stroke-width:1;stroke-linecap:butt;stroke-linejoin:miter;stroke-miterlimit:10;stroke-dasharray:none;stroke-opacity:1"
             id="path44" /></g><g
           id="g46"
           transform="translate(265.9761,350.9033)"><path
             d="M 0,0 V -29.815"
             style="fill:none;stroke:#231f20;stroke-width:1;stroke-linecap:butt;stroke-linejoin:miter;stroke-miterlimit:10;stroke-dasharray:none;stroke-opacity:1"
             id="path48" /></g><g
           id="g50"
           transform="translate(169.5893,350.9033)"><path
             d="M 0,0 H 126.201"
             style="fill:none;stroke:#231f20;stroke-width:1;stroke-linecap:butt;stroke-linejoin:miter;stroke-miterlimit:10;stroke-dasharray:none;stroke-opacity:1"
             id="path52" /></g><path
           d="M 169.589,477.105 H 500 V 272.896 H 169.589 Z"
           style="fill:none;stroke:#231f20;stroke-width:1;stroke-linecap:butt;stroke-linejoin:miter;stroke-miterlimit:10;stroke-dasharray:none;stroke-opacity:1"
           id="path54" /><g
           id="g56"
           transform="translate(500,375)"><path
             d="m 0,0 c 0,-56.391 -45.714,-102.105 -102.105,-102.105 -56.391,0 -102.104,45.714 -102.104,102.105 0,56.391 45.713,102.105 102.104,102.105 C -45.714,102.105 0,56.391 0,0 Z"
             style="fill:none;stroke:#231f20;stroke-width:1;stroke-linecap:butt;stroke-linejoin:miter;stroke-miterlimit:10;stroke-dasharray:none;stroke-opacity:1"
             id="path58" /></g><g
           id="g60"
           transform="translate(295.7906,414.004)"><path
             d="m 0,0 c 0,-34.85 -28.251,-63.101 -63.101,-63.101 -34.849,0 -63.1,28.251 -63.1,63.101 0,34.85 28.251,63.101 63.1,63.101 C -28.251,63.101 0,34.85 0,0 Z"
             style="fill:none;stroke:#231f20;stroke-width:1;stroke-linecap:butt;stroke-linejoin:miter;stroke-miterlimit:10;stroke-dasharray:none;stroke-opacity:1"
             id="path62" /></g><g
           id="g64"
           transform="translate(247.5972,311.8993)"><path
             d="m 0,0 c 0,-21.541 -17.463,-39.004 -39.004,-39.004 -21.541,0 -39.004,17.463 -39.004,39.004 0,21.541 17.463,39.004 39.004,39.004 C -17.463,39.004 0,21.541 0,0 Z"
             style="fill:none;stroke:#231f20;stroke-width:1;stroke-linecap:butt;stroke-linejoin:miter;stroke-miterlimit:10;stroke-dasharray:none;stroke-opacity:1"
             id="path66" /></g><g
           id="g68"
           transform="translate(295.7906,296.992)"><path
             d="m 0,0 c 0,-13.308 -10.788,-24.097 -24.097,-24.097 -13.308,0 -24.096,10.789 -24.096,24.097 0,13.308 10.788,24.097 24.096,24.097 C -10.788,24.097 0,13.308 0,0 Z"
             style="fill:none;stroke:#231f20;stroke-width:1;stroke-linecap:butt;stroke-linejoin:miter;stroke-miterlimit:10;stroke-dasharray:none;stroke-opacity:1"
             id="path70" /></g><g
           id="g72"
           transform="translate(295.7906,335.996)"><path
             d="m 0,0 c 0,-8.233 -6.674,-14.907 -14.907,-14.907 -8.233,0 -14.908,6.674 -14.908,14.907 0,8.233 6.675,14.907 14.908,14.907 C -6.674,14.907 0,8.233 0,0 Z"
             style="fill:none;stroke:#231f20;stroke-width:1;stroke-linecap:butt;stroke-linejoin:miter;stroke-miterlimit:10;stroke-dasharray:none;stroke-opacity:1"
             id="path74" /></g><g
           id="g76"
           transform="translate(265.9761,341.7139)"><path
             d="m 0,0 c 0,-5.075 -4.114,-9.189 -9.189,-9.189 -5.076,0 -9.19,4.114 -9.19,9.189 0,5.075 4.114,9.189 9.19,9.189 C -4.114,9.189 0,5.075 0,0 Z"
             style="fill:none;stroke:#231f20;stroke-width:1;stroke-linecap:butt;stroke-linejoin:miter;stroke-miterlimit:10;stroke-dasharray:none;stroke-opacity:1"
             id="path78" /></g><g
           id="g80"
           transform="translate(295.7906,477.1047)"><path
             d="M 0,0 V -204.209"
             style="fill:none;stroke:#231f20;stroke-width:1;stroke-linecap:butt;stroke-linejoin:miter;stroke-miterlimit:10;stroke-dasharray:none;stroke-opacity:1"
             id="path82" /></g><g
           id="g84"
           transform="translate(247.5972,350.9033)"><path
             d="M 0,0 V -78.008"
             style="fill:none;stroke:#231f20;stroke-width:1;stroke-linecap:butt;stroke-linejoin:miter;stroke-miterlimit:10;stroke-dasharray:none;stroke-opacity:1"
             id="path86" /></g><g
           id="g88"
           transform="translate(247.5972,332.5244)"><path
             d="M 0,0 H 18.379"
             style="fill:none;stroke:#231f20;stroke-width:1;stroke-linecap:butt;stroke-linejoin:miter;stroke-miterlimit:10;stroke-dasharray:none;stroke-opacity:1"
             id="path90" /></g><g
           id="g92"
           transform="translate(500,272.8953)"><path
             d="M 0,0 C 0,112.782 -91.428,204.209 -204.209,204.209"
             style="fill:none;stroke:#f7931d;stroke-width:2;stroke-linecap:butt;stroke-linejoin:miter;stroke-miterlimit:10;stroke-dasharray:none;stroke-opacity:1"
             id="path94" /></g><g
           id="g96"
           transform="translate(169.5893,350.9033)"><path
             d="M 0,0 C 0,69.699 56.502,126.201 126.201,126.201"
             style="fill:none;stroke:#f7931d;stroke-width:2;stroke-linecap:butt;stroke-linejoin:miter;stroke-miterlimit:10;stroke-dasharray:none;stroke-opacity:1"
             id="path98" /></g><g
           id="g100"
           transform="translate(169.5893,350.9033)"><path
             d="M 0,0 C 0,-43.083 34.925,-78.008 78.008,-78.008"
             style="fill:none;stroke:#f7931d;stroke-width:2;stroke-linecap:butt;stroke-linejoin:miter;stroke-miterlimit:10;stroke-dasharray:none;stroke-opacity:1"
             id="path102" /></g><g
           id="g104"
           transform="translate(295.7906,321.0887)"><path
             d="M 0,0 C 0,-26.616 -21.577,-48.193 -48.193,-48.193"
             style="fill:none;stroke:#f7931d;stroke-width:2;stroke-linecap:butt;stroke-linejoin:miter;stroke-miterlimit:10;stroke-dasharray:none;stroke-opacity:1"
             id="path106" /></g><g
           id="g108"
           transform="translate(295.7906,321.0887)"><path
             d="M 0,0 C 0,16.466 -13.348,29.815 -29.815,29.815"
             style="fill:none;stroke:#f7931d;stroke-width:2;stroke-linecap:butt;stroke-linejoin:miter;stroke-miterlimit:10;stroke-dasharray:none;stroke-opacity:1"
             id="path110" /></g><g
           id="g112"
           transform="translate(265.9761,350.5811)"><path
             d="M 0,0 C -9.972,0 -18.057,-8.084 -18.057,-18.057"
             style="fill:none;stroke:#f7931d;stroke-width:2;stroke-linecap:butt;stroke-linejoin:miter;stroke-miterlimit:10;stroke-dasharray:none;stroke-opacity:1"
             id="path114" /></g><g
           id="g116"
           transform="translate(774.9906,82.7657)"><path
             d="M 0,0 C -0.004,0.016 -0.005,0.021 -0.007,0.027 -0.004,0.016 0,0 0,0"
             style="fill:#ed8322;fill-opacity:1;fill-rule:nonzero;stroke:none"
             id="path118" /></g><g
           id="g120"
           transform="translate(774.9839,82.7926)"><path
             d="M 0,0 C -0.002,0.01 -0.003,0.011 0,0"
             style="fill:#ed8322;fill-opacity:1;fill-rule:nonzero;stroke:none"
             id="path122" /></g><g
           id="g124"
           transform="translate(775.1787,79.5517)"><path
             d="M 0,0 C 0.025,-0.139 0.048,-0.282 0.068,-0.426 L 0.073,-0.431 C 0.073,-0.431 0.052,-0.27 0,0"
             style="fill:#ed8322;fill-opacity:1;fill-rule:nonzero;stroke:none"
             id="path126" /></g><g
           id="g128"
           transform="translate(767.2977,99.361)"><path
             d="M 0,0 C -0.267,0.204 -0.437,0.303 -0.437,0.303 -0.296,0.21 -0.149,0.106 0,0"
             style="fill:#ed8322;fill-opacity:1;fill-rule:nonzero;stroke:none"
             id="path130" /></g><g
           id="g132"
           transform="translate(775.5437,94.6028)"><path
             d="m 0,0 c -0.447,0.414 -0.909,0.807 -1.371,1.183 0.65,-1.242 1.054,-2.41 1.296,-3.289 0.104,-0.349 0.192,-0.718 0.263,-1.108 0.052,-0.27 0.074,-0.431 0.074,-0.431 L 0.257,-3.64 c 0.081,-0.581 0.127,-1.201 0.117,-1.87 -0.218,-3.172 -1.169,-7.483 -4.018,-12.325 -1.326,-2.18 -2.825,-4.284 -4.479,-6.049 -0.142,-0.151 -0.284,-0.301 -0.428,-0.447 -0.023,-0.024 -0.046,-0.049 -0.07,-0.073 -1.406,-1.433 -3.058,-2.801 -4.897,-3.992 -0.028,-0.019 -0.051,-0.037 -0.08,-0.055 -0.027,-0.016 -0.054,-0.031 -0.079,-0.048 -1.585,-0.965 -3.278,-1.81 -4.932,-2.476 -0.192,-0.064 -0.408,-0.148 -0.657,-0.257 -0.465,-0.175 -0.925,-0.333 -1.377,-0.477 -3.081,-0.774 -5.269,0.683 -2.534,3.614 2.617,2.806 7.942,5.398 9.612,6.17 0,0 -12.138,-0.533 -18.571,-9.105 -0.411,-0.635 -0.801,-1.298 -1.141,-2.023 -2.878,-6.139 1.763,-7.297 5.266,-7.374 1.815,-0.041 3.324,0.21 3.324,0.21 3.549,0.415 7.462,1.409 11.18,2.79 1.464,0.581 2.994,1.254 4.592,2.043 4.478,2.305 9.028,5.525 12.472,9.976 v 0 c 0,0 0.621,0.706 1.38,1.949 0.011,0.017 0.023,0.033 0.034,0.05 v 0.006 C 7.444,-19.322 11.287,-9.615 0,0"
             style="fill:#1e293e;fill-opacity:1;fill-rule:nonzero;stroke:none"
             id="path134" /></g><g
           id="g136"
           transform="translate(774.318,90.958)"><path
             d="m 0,0 c -3.774,2.578 -8.696,5.307 -14.82,7.455 -7.282,2.554 -16.26,4.27 -26.972,3.937 V 4.974 c 1.385,0.081 9.97,0.478 19.928,-1.329 C -14.559,2.319 -6.533,-0.202 -0.093,-4.9 0.236,-3.076 0.223,-1.44 0,0"
             style="fill:#f29922;fill-opacity:1;fill-rule:nonzero;stroke:none"
             id="path138" /></g></g></g><g
       id="g140"><g
         id="g142"
         clip-path="url(#clipPath146)"><g
           id="g148"><g
             id="g150"><path
               d="m 751.315,101.276 c 1.113,-0.321 4.196,-1.258 8.182,-2.863 v 0 c 6.125,-2.148 11.047,-4.877 14.821,-7.455 v 0 c -0.764,4.937 -3.95,7.569 -3.984,7.597 v 0 c -4.617,2.999 -10.796,5.88 -19.019,8.086 v 0 z"
               style="fill:url(#linearGradient160);stroke:none"
               id="path162" /></g></g></g></g><g
       id="g164"><g
         id="g166"
         clip-path="url(#clipPath170)"><g
           id="g172"><g
             id="g174"><path
               d="m 746.074,88.56 c 1.124,0.157 13.694,1.649 26.329,-8.082 v 0 c -0.034,0.033 -0.059,0.058 -0.066,0.063 v 0 c 0.997,1.997 1.586,3.835 1.888,5.517 v 0 c -6.44,4.698 -14.466,7.219 -21.771,8.545 v 0 c -2.009,0.235 -4.142,0.351 -6.38,0.352 v 0 z"
               style="fill:url(#linearGradient182);stroke:none"
               id="path184" /></g></g></g></g><g
       id="g186"><g
         id="g188"
         clip-path="url(#clipPath192)"><g
           id="g194"
           transform="translate(797.2482,74.6133)"><path
             d="M 0,0 C 0.837,0 1.626,0.158 2.365,0.475 3.105,0.792 3.75,1.227 4.302,1.778 4.853,2.33 5.29,2.976 5.611,3.715 5.931,4.454 6.092,5.243 6.092,6.08 6.092,6.917 5.931,7.706 5.611,8.445 5.29,9.185 4.853,9.83 4.302,10.382 3.75,10.933 3.105,11.37 2.365,11.691 1.626,12.011 0.837,12.172 0,12.172 H -3.991 V 0 Z m -6.315,-2.324 v 16.82 H 0 c 0.775,0 1.52,-0.1 2.236,-0.299 0.716,-0.2 1.385,-0.484 2.007,-0.851 0.622,-0.368 1.189,-0.809 1.702,-1.321 0.512,-0.513 0.953,-1.08 1.321,-1.702 0.367,-0.622 0.651,-1.291 0.85,-2.007 0.2,-0.716 0.3,-1.461 0.3,-2.236 0,-0.775 -0.1,-1.52 -0.3,-2.236 C 7.917,3.128 7.633,2.459 7.266,1.837 6.898,1.215 6.457,0.647 5.945,0.135 5.432,-0.378 4.865,-0.816 4.243,-1.18 3.621,-1.543 2.952,-1.825 2.236,-2.025 1.52,-2.224 0.775,-2.324 0,-2.324 Z"
             style="fill:#1e293e;fill-opacity:1;fill-rule:nonzero;stroke:none"
             id="path196" /></g><path
           d="m 826.909,72.289 h -2.324 v 16.82 h 2.324 z"
           style="fill:#1e293e;fill-opacity:1;fill-rule:nonzero;stroke:none"
           id="path198" /><g
           id="g200"
           transform="translate(845.6063,72.2894)"><path
             d="m 0,0 h -1.89 l -9.613,13.134 c -0.062,0.086 -0.115,0.182 -0.158,0.288 -0.043,0.105 -0.081,0.213 -0.112,0.323 -0.031,0.117 -0.058,0.242 -0.082,0.375 V 0 h -2.324 v 16.82 h 1.655 c 0.376,0 0.704,-0.055 0.986,-0.164 0.282,-0.11 0.505,-0.278 0.669,-0.505 L -2.711,4.918 C -2.5,4.613 -2.371,4.225 -2.324,3.756 V 16.82 H 0 Z"
             style="fill:#1e293e;fill-opacity:1;fill-rule:nonzero;stroke:none"
             id="path202" /></g><g
           id="g204"
           transform="translate(851.0641,80.7051)"><path
             d="m 0,0 c 0,-0.869 0.164,-1.683 0.493,-2.441 0.329,-0.759 0.776,-1.423 1.344,-1.99 0.567,-0.567 1.23,-1.015 1.989,-1.344 0.759,-0.328 1.573,-0.493 2.442,-0.493 0.868,0 1.682,0.165 2.441,0.493 0.759,0.329 1.422,0.777 1.99,1.344 0.567,0.567 1.015,1.231 1.344,1.99 0.328,0.758 0.493,1.572 0.493,2.441 0,0.869 -0.165,1.682 -0.493,2.441 C 11.714,3.2 11.266,3.863 10.699,4.431 10.131,4.998 9.468,5.446 8.709,5.775 7.95,6.103 7.136,6.268 6.268,6.268 5.399,6.268 4.585,6.103 3.826,5.775 3.067,5.446 2.404,4.998 1.837,4.431 1.269,3.863 0.822,3.2 0.493,2.441 0.164,1.682 0,0.869 0,0 m -2.324,0 c 0,0.79 0.102,1.551 0.305,2.283 0.204,0.732 0.493,1.416 0.869,2.054 0.375,0.638 0.823,1.217 1.344,1.737 0.52,0.52 1.099,0.969 1.737,1.344 0.637,0.376 1.322,0.665 2.054,0.869 0.731,0.203 1.492,0.305 2.283,0.305 0.79,0 1.551,-0.102 2.283,-0.305 C 9.282,8.083 9.967,7.794 10.605,7.418 11.243,7.043 11.822,6.594 12.342,6.074 12.862,5.554 13.31,4.975 13.686,4.337 14.061,3.699 14.351,3.015 14.554,2.283 14.758,1.551 14.86,0.79 14.86,0 14.86,-0.79 14.758,-1.551 14.554,-2.283 14.351,-3.015 14.061,-3.699 13.686,-4.337 13.31,-4.975 12.862,-5.554 12.342,-6.074 11.822,-6.595 11.243,-7.042 10.605,-7.418 9.967,-7.794 9.282,-8.083 8.551,-8.287 7.819,-8.49 7.058,-8.592 6.268,-8.592 c -1.19,0 -2.305,0.225 -3.345,0.675 -1.041,0.45 -1.951,1.064 -2.729,1.843 -0.779,0.778 -1.393,1.688 -1.843,2.729 -0.45,1.04 -0.675,2.155 -0.675,3.345"
             style="fill:#1e293e;fill-opacity:1;fill-rule:nonzero;stroke:none"
             id="path206" /></g><g
           id="g208"
           transform="translate(882.8959,80.8577)"><path
             d="m 0,0 v -6.784 c -0.391,-0.392 -0.824,-0.714 -1.297,-0.969 -0.474,-0.254 -0.976,-0.456 -1.508,-0.604 -0.532,-0.149 -1.086,-0.25 -1.661,-0.305 -0.575,-0.055 -1.16,-0.082 -1.755,-0.082 -1.189,0 -2.304,0.224 -3.345,0.674 -1.041,0.45 -1.95,1.065 -2.729,1.843 -0.779,0.779 -1.393,1.688 -1.843,2.729 -0.45,1.041 -0.675,2.156 -0.675,3.345 0,0.791 0.102,1.552 0.306,2.283 0.203,0.732 0.493,1.417 0.868,2.054 0.376,0.638 0.824,1.217 1.344,1.738 0.52,0.52 1.099,0.968 1.737,1.344 0.638,0.375 1.323,0.665 2.054,0.868 0.732,0.204 1.493,0.305 2.283,0.305 0.618,0 1.221,-0.064 1.808,-0.193 C -3.826,8.117 -3.267,7.935 -2.735,7.7 -2.203,7.465 -1.7,7.178 -1.227,6.837 -0.753,6.497 -0.321,6.115 0.07,5.693 L -0.364,5.258 C -0.552,5.071 -0.749,4.93 -0.956,4.836 -1.164,4.742 -1.405,4.695 -1.678,4.695 -2.03,4.695 -2.355,4.797 -2.653,5 c -0.516,0.352 -1.074,0.626 -1.672,0.822 -0.599,0.195 -1.231,0.293 -1.896,0.293 -0.868,0 -1.682,-0.164 -2.441,-0.493 -0.759,-0.328 -1.422,-0.776 -1.99,-1.344 -0.567,-0.567 -1.015,-1.23 -1.344,-1.989 -0.328,-0.759 -0.493,-1.573 -0.493,-2.442 0,-0.868 0.171,-1.682 0.511,-2.441 0.34,-0.759 0.802,-1.422 1.385,-1.989 0.583,-0.568 1.26,-1.016 2.03,-1.344 0.771,-0.329 1.591,-0.493 2.46,-0.493 0.719,0 1.4,0.084 2.042,0.252 0.641,0.168 1.228,0.421 1.761,0.757 v 3.087 h -0.94 c -0.273,0 -0.522,0.049 -0.745,0.147 -0.223,0.097 -0.413,0.229 -0.569,0.393 -0.157,0.164 -0.278,0.356 -0.364,0.575 -0.086,0.219 -0.129,0.45 -0.129,0.693 l 0,0.516 z"
             style="fill:#1e293e;fill-opacity:1;fill-rule:nonzero;stroke:none"
             id="path210" /></g><g
           id="g212"
           transform="translate(887.9193,80.7051)"><path
             d="m 0,0 c 0,-0.869 0.164,-1.683 0.493,-2.441 0.329,-0.759 0.777,-1.423 1.344,-1.99 0.567,-0.567 1.23,-1.015 1.989,-1.344 0.759,-0.328 1.573,-0.493 2.442,-0.493 0.868,0 1.682,0.165 2.441,0.493 0.759,0.329 1.422,0.777 1.99,1.344 0.567,0.567 1.015,1.231 1.344,1.99 0.328,0.758 0.493,1.572 0.493,2.441 0,0.869 -0.165,1.682 -0.493,2.441 C 11.714,3.2 11.266,3.863 10.699,4.431 10.131,4.998 9.468,5.446 8.709,5.775 7.95,6.103 7.136,6.268 6.268,6.268 5.399,6.268 4.585,6.103 3.826,5.775 3.067,5.446 2.404,4.998 1.837,4.431 1.27,3.863 0.822,3.2 0.493,2.441 0.164,1.682 0,0.869 0,0 m -2.324,0 c 0,0.79 0.102,1.551 0.305,2.283 0.204,0.732 0.493,1.416 0.869,2.054 0.375,0.638 0.823,1.217 1.344,1.737 0.52,0.52 1.099,0.969 1.737,1.344 0.638,0.376 1.322,0.665 2.054,0.869 0.731,0.203 1.492,0.305 2.283,0.305 0.79,0 1.551,-0.102 2.283,-0.305 C 9.282,8.083 9.967,7.794 10.605,7.418 11.243,7.043 11.822,6.594 12.342,6.074 12.862,5.554 13.31,4.975 13.686,4.337 14.062,3.699 14.351,3.015 14.555,2.283 14.758,1.551 14.86,0.79 14.86,0 14.86,-0.79 14.758,-1.551 14.555,-2.283 14.351,-3.015 14.062,-3.699 13.686,-4.337 13.31,-4.975 12.862,-5.554 12.342,-6.074 11.822,-6.595 11.243,-7.042 10.605,-7.418 9.967,-7.794 9.282,-8.083 8.551,-8.287 7.819,-8.49 7.058,-8.592 6.268,-8.592 c -1.19,0 -2.305,0.225 -3.345,0.675 -1.041,0.45 -1.951,1.064 -2.729,1.843 -0.779,0.778 -1.393,1.688 -1.843,2.729 -0.45,1.04 -0.675,2.155 -0.675,3.345"
             style="fill:#1e293e;fill-opacity:1;fill-rule:nonzero;stroke:none"
             id="path214" /></g><g
           id="g216"
           transform="translate(815.1598,89.1092)"><path
             d="m 0,0 h -2.265 l -7.336,-16.82 h 1.338 c 0.367,0 0.702,0.098 1.003,0.294 0.302,0.195 0.523,0.457 0.664,0.786 l 1.161,2.676 h 0.004 l 3.438,7.879 0.643,1.476 c 0.055,0.141 0.1,0.293 0.135,0.458 0.035,0.164 0.061,0.344 0.076,0.54 0.024,-0.392 0.098,-0.724 0.223,-0.998 l 0.642,-1.471 4.059,-9.314 0.546,-1.246 C 4.48,-16.077 4.703,-16.341 5,-16.532 5.297,-16.724 5.63,-16.82 5.998,-16.82 h 1.338 z"
             style="fill:#1e293e;fill-opacity:1;fill-rule:nonzero;stroke:none"
             id="path218" /></g><g
           id="g220"
           transform="translate(816.952,62.3644)"><path
             d="M 0,0 H -0.81 L -1.754,3.698 H -1.772 L -2.708,0 h -0.828 l -1.493,4.651 h 0.846 l 1.052,-3.805 h 0.018 l 0.936,3.805 h 0.837 l 0.971,-3.805 h 0.018 l 1.044,3.805 h 0.792 z"
             style="fill:#107dab;fill-opacity:1;fill-rule:nonzero;stroke:none"
             id="path222" /></g><g
           id="g224"
           transform="translate(823.7715,62.3644)"><path
             d="M 0,0 H -0.81 L -1.754,3.698 H -1.772 L -2.708,0 h -0.828 l -1.493,4.651 h 0.846 l 1.052,-3.805 h 0.018 l 0.936,3.805 h 0.837 l 0.971,-3.805 h 0.018 l 1.044,3.805 h 0.792 z"
             style="fill:#107dab;fill-opacity:1;fill-rule:nonzero;stroke:none"
             id="path226" /></g><g
           id="g228"
           transform="translate(830.5909,62.3644)"><path
             d="M 0,0 H -0.81 L -1.754,3.698 H -1.772 L -2.708,0 h -0.828 l -1.493,4.651 h 0.846 l 1.052,-3.805 h 0.018 l 0.936,3.805 h 0.837 l 0.971,-3.805 h 0.018 l 1.044,3.805 h 0.792 z"
             style="fill:#107dab;fill-opacity:1;fill-rule:nonzero;stroke:none"
             id="path230" /></g><path
           d="m 832.48,63.363 h 0.999 v -0.999 h -0.999 z"
           style="fill:#107dab;fill-opacity:1;fill-rule:nonzero;stroke:none"
           id="path232" /><g
           id="g234"
           transform="translate(835.368,64.6497)"><path
             d="m 0,0 c 0,-0.474 0.123,-0.879 0.369,-1.215 0.246,-0.336 0.603,-0.504 1.071,-0.504 0.479,0 0.836,0.171 1.07,0.513 0.234,0.342 0.351,0.756 0.351,1.242 0,0.498 -0.122,0.916 -0.364,1.255 C 2.254,1.63 1.886,1.799 1.394,1.799 0.909,1.799 0.555,1.627 0.333,1.282 0.111,0.937 0,0.51 0,0 M 3.598,-2.285 H 2.834 v 0.629 H 2.816 c -0.24,-0.485 -0.735,-0.728 -1.484,-0.728 -0.684,0 -1.212,0.232 -1.584,0.697 -0.372,0.465 -0.558,1.045 -0.558,1.741 0,0.696 0.183,1.273 0.549,1.732 0.366,0.459 0.891,0.688 1.574,0.688 0.276,0 0.558,-0.058 0.846,-0.176 C 2.447,2.181 2.666,1.997 2.816,1.745 h 0.018 v 2.393 h 0.764 z"
             style="fill:#107dab;fill-opacity:1;fill-rule:nonzero;stroke:none"
             id="path236" /></g><g
           id="g238"
           transform="translate(843.024,64.7666)"><path
             d="M 0,0 C -0.12,-0.09 -0.321,-0.159 -0.603,-0.207 -0.885,-0.255 -1.147,-0.29 -1.39,-0.31 c -0.243,-0.021 -0.459,-0.101 -0.648,-0.239 -0.189,-0.138 -0.283,-0.339 -0.283,-0.603 0,-0.234 0.085,-0.406 0.256,-0.517 0.171,-0.111 0.385,-0.166 0.644,-0.166 0.461,0 0.814,0.111 1.057,0.333 C -0.122,-1.281 0,-1.041 0,-0.783 Z M 1.241,-2.384 C 1.109,-2.462 0.926,-2.501 0.693,-2.501 c -0.432,0 -0.648,0.237 -0.648,0.711 -0.396,-0.474 -0.942,-0.711 -1.637,-0.711 -0.457,0 -0.827,0.105 -1.112,0.315 -0.285,0.21 -0.427,0.536 -0.427,0.98 0,0.252 0.042,0.467 0.126,0.644 0.084,0.177 0.208,0.316 0.373,0.418 0.165,0.102 0.327,0.178 0.486,0.229 0.159,0.051 0.356,0.098 0.59,0.14 0.113,0.024 0.248,0.048 0.404,0.072 0.156,0.024 0.282,0.042 0.378,0.054 0.096,0.012 0.199,0.031 0.31,0.058 0.111,0.027 0.197,0.06 0.257,0.099 0.06,0.039 0.111,0.092 0.153,0.158 0.042,0.065 0.063,0.147 0.063,0.243 0,0.515 -0.345,0.773 -1.035,0.773 -0.744,0 -1.13,-0.294 -1.16,-0.881 h -0.765 c 0.024,0.539 0.216,0.934 0.576,1.183 0.36,0.248 0.824,0.373 1.394,0.373 1.164,0 1.745,-0.426 1.745,-1.277 v -2.393 c 0,-0.211 0.013,-0.35 0.037,-0.419 0.023,-0.069 0.093,-0.103 0.207,-0.103 0.053,0 0.131,0.014 0.233,0.045 z"
             style="fill:#107dab;fill-opacity:1;fill-rule:nonzero;stroke:none"
             id="path240" /></g><path
           d="m 845.021,67.016 h 0.765 v -4.651 h -0.765 z m 0.765,0.836 h -0.765 v 0.936 h 0.765 z"
           style="fill:#107dab;fill-opacity:1;fill-rule:nonzero;stroke:none"
           id="path242" /><g
           id="g244"
           transform="translate(846.9733,67.0157)"><path
             d="m 0,0 h 0.72 v -0.738 h 0.018 c 0.312,0.564 0.816,0.846 1.511,0.846 0.576,0 0.987,-0.149 1.233,-0.445 0.246,-0.297 0.369,-0.716 0.369,-1.255 V -4.651 H 3.086 v 3.149 c 0,0.287 -0.084,0.515 -0.252,0.683 -0.168,0.168 -0.399,0.252 -0.693,0.252 -0.449,0 -0.791,-0.133 -1.026,-0.4 -0.233,-0.267 -0.35,-0.619 -0.35,-1.057 V -4.651 H 0 Z"
             style="fill:#107dab;fill-opacity:1;fill-rule:nonzero;stroke:none"
             id="path246" /></g><g
           id="g248"
           transform="translate(852.947,65.9765)"><path
             d="m 0,0 c -0.276,-0.315 -0.414,-0.745 -0.414,-1.291 0,-0.546 0.138,-0.975 0.414,-1.286 0.276,-0.312 0.621,-0.468 1.035,-0.468 0.413,0 0.758,0.156 1.034,0.468 0.276,0.311 0.414,0.74 0.414,1.286 C 2.483,-0.745 2.345,-0.315 2.069,0 1.793,0.315 1.448,0.472 1.035,0.472 0.621,0.472 0.276,0.315 0,0 m -1.224,-1.291 c 0,0.714 0.198,1.298 0.594,1.755 0.396,0.455 0.951,0.683 1.665,0.683 0.713,0 1.268,-0.228 1.664,-0.683 0.396,-0.457 0.594,-1.041 0.594,-1.755 0,-0.708 -0.198,-1.288 -0.594,-1.741 -0.396,-0.453 -0.951,-0.679 -1.664,-0.679 -0.714,0 -1.269,0.226 -1.665,0.679 -0.396,0.453 -0.594,1.033 -0.594,1.741"
             style="fill:#107dab;fill-opacity:1;fill-rule:nonzero;stroke:none"
             id="path250" /></g><g
           id="g252"
           transform="translate(859.0106,62.9852)"><path
             d="m 0,0 c 0.468,0 0.815,0.177 1.044,0.531 0.228,0.354 0.342,0.777 0.342,1.268 0,0.462 -0.11,0.855 -0.329,1.179 -0.219,0.324 -0.55,0.486 -0.994,0.486 -0.462,0 -0.807,-0.161 -1.035,-0.482 -0.228,-0.32 -0.341,-0.724 -0.341,-1.21 0,-0.305 0.037,-0.584 0.112,-0.836 C -1.126,0.684 -0.987,0.465 -0.783,0.279 -0.579,0.093 -0.318,0 0,0 m 2.141,-0.225 c 0,-0.768 -0.175,-1.339 -0.526,-1.714 -0.351,-0.375 -0.895,-0.562 -1.633,-0.562 -0.318,0 -0.612,0.042 -0.882,0.126 -0.27,0.084 -0.508,0.232 -0.715,0.445 -0.207,0.213 -0.316,0.479 -0.328,0.796 h 0.765 c 0.011,-0.252 0.142,-0.44 0.391,-0.566 0.249,-0.126 0.52,-0.189 0.814,-0.189 0.48,0 0.832,0.156 1.057,0.468 0.225,0.311 0.337,0.74 0.337,1.286 V 0.171 H 1.403 C 1.278,-0.105 1.084,-0.313 0.823,-0.454 0.562,-0.595 0.273,-0.666 -0.045,-0.666 c -0.66,0 -1.171,0.224 -1.534,0.67 -0.363,0.447 -0.544,1.006 -0.544,1.678 0,0.294 0.037,0.579 0.112,0.855 0.075,0.276 0.192,0.537 0.351,0.783 0.159,0.246 0.384,0.443 0.675,0.594 0.291,0.149 0.628,0.225 1.012,0.225 0.642,0 1.104,-0.259 1.386,-0.774 h 0.008 v 0.666 h 0.72 z"
             style="fill:#107dab;fill-opacity:1;fill-rule:nonzero;stroke:none"
             id="path254" /></g><g
           id="g256"
           transform="translate(863.2746,65.9765)"><path
             d="m 0,0 c -0.276,-0.315 -0.414,-0.745 -0.414,-1.291 0,-0.546 0.138,-0.975 0.414,-1.286 0.276,-0.312 0.621,-0.468 1.035,-0.468 0.413,0 0.758,0.156 1.034,0.468 0.276,0.311 0.414,0.74 0.414,1.286 C 2.483,-0.745 2.345,-0.315 2.069,0 1.793,0.315 1.448,0.472 1.035,0.472 0.621,0.472 0.276,0.315 0,0 m -1.224,-1.291 c 0,0.714 0.198,1.298 0.594,1.755 0.396,0.455 0.951,0.683 1.665,0.683 0.713,0 1.268,-0.228 1.664,-0.683 0.396,-0.457 0.594,-1.041 0.594,-1.755 0,-0.708 -0.198,-1.288 -0.594,-1.741 -0.396,-0.453 -0.951,-0.679 -1.664,-0.679 -0.714,0 -1.269,0.226 -1.665,0.679 -0.396,0.453 -0.594,1.033 -0.594,1.741"
             style="fill:#107dab;fill-opacity:1;fill-rule:nonzero;stroke:none"
             id="path258" /></g><path
           d="m 867.638,63.363 h 0.999 v -0.999 h -0.999 z"
           style="fill:#107dab;fill-opacity:1;fill-rule:nonzero;stroke:none"
           id="path260" /><g
           id="g262"
           transform="translate(869.9682,67.0157)"><path
             d="m 0,0 h 0.72 v -0.738 h 0.018 c 0.312,0.564 0.816,0.846 1.511,0.846 0.576,0 0.987,-0.149 1.233,-0.445 0.246,-0.297 0.369,-0.716 0.369,-1.255 V -4.651 H 3.086 v 3.149 c 0,0.287 -0.084,0.515 -0.252,0.683 -0.168,0.168 -0.399,0.252 -0.693,0.252 -0.449,0 -0.791,-0.133 -1.025,-0.4 C 0.882,-1.234 0.765,-1.586 0.765,-2.024 V -4.651 H 0 Z"
             style="fill:#107dab;fill-opacity:1;fill-rule:nonzero;stroke:none"
             id="path264" /></g><g
           id="g266"
           transform="translate(878.2002,65.1355)"><path
             d="M 0,0 C -0.024,0.372 -0.161,0.684 -0.409,0.936 -0.658,1.188 -0.969,1.313 -1.34,1.313 -1.724,1.313 -2.036,1.188 -2.276,0.936 -2.516,0.684 -2.648,0.372 -2.672,0 Z M 0.738,-1.296 C 0.636,-1.811 0.412,-2.203 0.067,-2.47 c -0.344,-0.267 -0.784,-0.4 -1.317,-0.4 -0.714,0 -1.259,0.221 -1.634,0.661 -0.374,0.441 -0.574,1.033 -0.598,1.777 0,0.702 0.206,1.28 0.617,1.737 0.41,0.455 0.934,0.683 1.569,0.683 0.318,0 0.603,-0.057 0.855,-0.171 C -0.189,1.703 0.015,1.556 0.171,1.376 0.327,1.197 0.456,0.986 0.558,0.747 0.66,0.507 0.73,0.268 0.769,0.031 0.808,-0.206 0.822,-0.441 0.81,-0.675 h -3.482 c -0.012,-0.432 0.105,-0.795 0.351,-1.088 0.246,-0.294 0.612,-0.441 1.097,-0.441 0.672,0 1.074,0.303 1.206,0.908 z"
             style="fill:#107dab;fill-opacity:1;fill-rule:nonzero;stroke:none"
             id="path268" /></g><g
           id="g270"
           transform="translate(880.863,67.0157)"><path
             d="M 0,0 H 0.927 V -0.675 H 0 V -3.563 C 0,-3.743 0.036,-3.857 0.108,-3.904 0.18,-3.952 0.336,-3.977 0.576,-3.977 H 0.927 V -4.651 H 0.342 c -0.414,0 -0.702,0.067 -0.864,0.202 -0.162,0.135 -0.243,0.406 -0.243,0.814 v 2.96 H -1.556 V 0 h 0.791 v 1.394 l 0.765,0 z"
             style="fill:#107dab;fill-opacity:1;fill-rule:nonzero;stroke:none"
             id="path272" /></g></g></g></g></svg>
